# xmcd
#
# Track frame offsets:
#	150
#	17820
#	33545
#	47770
#	62762
#	79722
#	97362
#	114495
#	128060
#	146760
#	165217
#	178310
#
# Disc length: 2582 seconds
#
# Revision: 0
# Processed by: cddbd v1.5.1PL0 Copyright (c) Steve Scherf et al.
# Submitted via: EasyCDDAExtractor 7.5.2.1
#
DISCID=a50a140c
DTITLE=The International Country All-Stars - A Tribute To Tim McGraw
DYEAR=2003
DGENRE=Country
TTITLE0=Angel Boy
TTITLE1=For A Little While
TTITLE2=I Like It, I Love It
TTITLE3=Can't Be Really Gone
TTITLE4=It's Your Love
TTITLE5=Grown Men Don't Cry
TTITLE6=Telluride
TTITLE7=Things Change
TTITLE8=Reg Ragtop
TTITLE9=Don't Take The Girl
TTITLE10=Indian Outlaw
TTITLE11=Just To See You Smile
EXTD=
EXTT0=
EXTT1=
EXTT2=
EXTT3=
EXTT4=
EXTT5=
EXTT6=
EXTT7=
EXTT8=
EXTT9=
EXTT10=
EXTT11=
PLAYORDER=
